<svg width="99" height="99" viewBox="0 0 99 99" fill="none" xmlns="http://www.w3.org/2000/svg">
<circle cx="49.5" cy="49.5" r="49.5" fill="#419FD9"/>
<path d="M0.571154 20.8441C0.190385 20.4652 0 19.8967 0 19.5177C0 19.1387 0.190385 18.5702 0.571154 18.1913L3.23654 15.5384C3.99808 14.7804 5.14038 14.7804 5.90192 15.5384L6.09231 15.7279L16.5635 26.9079C16.9442 27.2869 17.5154 27.2869 17.8962 26.9079L43.4077 0.568477H43.5981C44.3596 -0.189492 45.5019 -0.189492 46.2635 0.568477L48.9288 3.22137C49.6904 3.97934 49.6904 5.11629 48.9288 5.87426L18.4673 37.33C18.0865 37.7089 17.7058 37.8984 17.1346 37.8984C16.5635 37.8984 16.1827 37.7089 15.8019 37.33L0.951923 21.4126L0.571154 20.8441Z" transform="translate(24.75 30.9375)" fill="white"/>
</svg>
