<svg width="99" height="99" viewBox="0 0 99 99" fill="none" xmlns="http://www.w3.org/2000/svg">
<circle cx="49.5" cy="49.5" r="49.5" fill="#419FD9"/>
<path d="M13.8428 49.7217H5.63965L4.47754 15.2344H15.0049L13.8428 49.7217ZM9.74121 55.1221C11.4046 55.1221 12.7376 55.612 13.7402 56.5918C14.7656 57.5716 15.2783 58.8249 15.2783 60.3516C15.2783 61.8555 14.7656 63.0973 13.7402 64.0771C12.7376 65.057 11.4046 65.5469 9.74121 65.5469C8.10059 65.5469 6.76758 65.057 5.74219 64.0771C4.73958 63.0973 4.23828 61.8555 4.23828 60.3516C4.23828 58.8477 4.73958 57.6058 5.74219 56.626C6.76758 55.6234 8.10059 55.1221 9.74121 55.1221Z" transform="translate(40 8)" fill="white"/>
</svg>
